<svg style="fill:white" xmlns="http://www.w3.org/2000/svg"  viewBox="0 0 30 30" width="30px" height="30px"><path d="M192.492 5.70559C191.636 6.08495 190.717 6.34128 189.75 6.45713C190.747 5.8602 191.494 4.92069 191.85 3.81393C190.912 4.37065 189.886 4.76253 188.817 4.97251C188.097 4.20443 187.145 3.69532 186.106 3.52425C185.068 3.35318 184.002 3.5297 183.074 4.02642C182.146 4.52314 181.409 5.31225 180.975 6.27125C180.542 7.23025 180.437 8.30548 180.678 9.33C178.779 9.23465 176.921 8.74102 175.225 7.88116C173.529 7.02131 172.032 5.81444 170.833 4.33888C170.423 5.04633 170.187 5.86656 170.187 6.74011C170.187 7.52652 170.38 8.30086 170.751 8.99446C171.121 9.68806 171.658 10.2795 172.311 10.7162C171.553 10.6921 170.811 10.4871 170.148 10.1185V10.18C170.148 11.2829 170.53 12.3519 171.228 13.2056C171.926 14.0593 172.899 14.645 173.98 14.8635C173.276 15.0539 172.538 15.0819 171.822 14.9455C172.127 15.8946 172.722 16.7244 173.522 17.3191C174.322 17.9136 175.288 18.2431 176.285 18.2613C174.593 19.5896 172.503 20.3099 170.352 20.3067C169.971 20.3069 169.59 20.2846 169.212 20.2402C171.395 21.644 173.937 22.389 176.533 22.386C185.319 22.386 190.123 15.1085 190.123 8.79685C190.123 8.59179 190.118 8.38469 190.109 8.17962C191.043 7.50393 191.849 6.66721 192.49 5.70867L192.492 5.70559Z" fill="white"/></svg>